<?xml version="1.0" standalone="no"?>
<!DOCTYPE svg PUBLIC "-//W3C//DTD SVG 20010904//EN"
 "http://www.w3.org/TR/2001/REC-SVG-20010904/DTD/svg10.dtd">
<svg version="1.0" xmlns="http://www.w3.org/2000/svg"
 width="907.000000pt" height="907.000000pt" viewBox="0 0 907.000000 907.000000"
 preserveAspectRatio="xMidYMid meet">
<metadata>
Created by potrace 1.11, written by Peter Selinger 2001-2013
</metadata>
<g transform="translate(0.000000,907.000000) scale(0.100000,-0.100000)"
fill="#000000" stroke="none">
<path d="M3790 7060 c-78 -8 -126 -28 -162 -66 -90 -97 -43 -244 79 -244 78 0
122 38 123 106 0 50 -31 84 -77 84 -56 0 -71 -61 -18 -74 32 -8 32 -23 0 -38
-19 -9 -29 -8 -49 6 -56 36 -41 106 29 141 36 17 67 20 285 23 284 5 347 -3
393 -50 25 -25 29 -34 24 -66 -10 -62 -74 -94 -112 -56 -22 22 -15 48 13 52
17 3 22 9 20 25 -5 34 -50 35 -77 1 -53 -68 -1 -144 100 -144 33 0 47 6 75 34
30 30 34 40 34 88 0 74 -35 122 -114 157 -61 26 -402 39 -566 21z"/>
<path d="M3860 6928 l0 -33 170 0 c165 0 171 1 168 20 -3 22 -28 27 -229 40
l-109 7 0 -34z"/>
<path d="M3860 6828 l0 -33 170 0 c165 0 171 1 168 20 -3 22 -22 25 -235 39
l-103 7 0 -33z"/>
<path d="M3838 6733 l-58 -4 0 -739 0 -740 65 0 65 0 0 745 c0 410 -3 744 -7
743 -5 -1 -34 -3 -65 -5z"/>
<path d="M3960 5990 l0 -750 50 0 50 0 0 750 0 750 -50 0 -50 0 0 -750z"/>
<path d="M4130 5989 c0 -681 1 -751 16 -745 9 3 22 6 30 6 12 0 14 108 14 739
0 665 -2 739 -16 745 -46 18 -44 54 -44 -745z"/>
<path d="M4260 5990 c0 -487 3 -740 10 -740 7 0 10 253 10 740 0 487 -3 740
-10 740 -7 0 -10 -253 -10 -740z"/>
<path d="M3780 5170 l0 -48 125 -7 c69 -4 181 -4 250 0 111 7 125 9 125 25 0
16 -13 19 -87 25 -102 7 -297 31 -365 44 l-48 8 0 -47z"/>
<path d="M3670 5057 c0 -35 4 -47 18 -51 45 -15 348 -23 502 -15 181 10 200
14 200 35 0 11 -20 14 -103 14 -168 0 -492 31 -594 56 -21 6 -23 3 -23 -39z"/>
<path d="M3740 4951 c8 -6 144 -84 302 -173 244 -138 288 -167 293 -189 3 -15
17 -36 30 -49 50 -47 49 -47 922 61 449 55 828 105 842 111 21 7 23 11 11 18
-28 15 -194 30 -400 37 -193 5 -236 11 -755 93 l-550 86 -150 -7 c-139 -8
-469 3 -533 17 -21 4 -24 3 -12 -5z"/>
<path d="M940 3215 l0 -746 148 3 147 3 3 743 2 742 -150 0 -150 0 0 -745z"/>
<path d="M1830 3434 c-88 -23 -161 -63 -224 -123 -106 -101 -148 -201 -149
-356 0 -114 21 -192 77 -279 163 -256 589 -302 824 -91 162 145 206 389 107
591 -63 130 -179 220 -330 259 -74 19 -232 19 -305 -1z m278 -268 c42 -21 89
-79 101 -123 30 -106 -2 -234 -70 -285 -112 -83 -285 -57 -353 54 -34 56 -46
153 -26 222 14 52 59 110 102 132 65 34 181 34 246 0z"/>
<path d="M3200 3441 c-53 -16 -108 -51 -143 -90 -20 -23 -39 -41 -42 -41 -3 0
-5 27 -5 60 l0 60 -140 0 -140 0 0 -480 0 -481 148 3 147 3 5 300 c5 323 7
331 62 382 52 49 173 46 219 -5 42 -47 49 -106 49 -407 l0 -275 145 0 145 0 0
328 c0 359 -7 423 -56 513 -33 59 -90 104 -158 124 -52 16 -193 19 -236 6z"/>
<path d="M4183 3436 c-187 -61 -313 -256 -313 -483 0 -258 151 -446 388 -484
122 -20 244 12 320 84 l32 31 0 -68 c0 -92 -17 -143 -62 -188 -100 -100 -325
-86 -476 29 -19 14 -37 21 -42 17 -33 -37 -150 -228 -146 -239 8 -23 167 -94
246 -112 97 -21 333 -24 410 -4 182 46 294 155 347 338 15 50 17 127 21 566
l3 507 -135 0 -136 0 0 -60 c0 -33 -3 -60 -6 -60 -3 0 -17 13 -30 30 -14 16
-60 47 -101 67 -71 35 -83 38 -177 40 -65 2 -116 -2 -143 -11z m339 -279 c158
-92 149 -324 -15 -408 -87 -45 -189 -32 -264 34 -118 104 -102 294 33 373 82
48 165 49 246 1z"/>
<path d="M5444 3431 c-83 -23 -153 -56 -208 -100 l-38 -31 77 -80 78 -79 35
31 c81 71 211 99 295 64 34 -14 97 -78 97 -99 0 -7 3 -21 6 -33 5 -20 2 -21
-133 -27 -365 -15 -526 -125 -511 -351 8 -118 59 -190 173 -243 53 -24 72 -28
160 -28 126 0 187 21 262 89 l53 48 0 -61 0 -61 135 0 135 0 0 268 c0 412 -19
512 -114 608 -77 76 -137 96 -301 101 -105 2 -144 -1 -201 -16z m346 -581 c0
-45 -21 -104 -48 -133 -29 -32 -93 -59 -152 -64 -135 -13 -217 84 -142 168 42
47 117 68 240 69 l102 0 0 -40z"/>
<path d="M6749 3436 c-51 -18 -94 -53 -134 -111 l-35 -49 0 77 0 77 -150 0
-150 0 2 -477 3 -478 147 -3 147 -3 3 278 c3 299 7 323 61 382 49 54 166 77
280 56 l38 -7 -3 133 -3 134 -85 2 c-51 2 -100 -3 -121 -11z"/>
<path d="M7432 3434 c-171 -46 -298 -162 -351 -321 -25 -74 -28 -220 -7 -299
71 -266 366 -419 660 -344 250 64 400 265 383 515 -16 227 -154 391 -380 451
-67 18 -237 17 -305 -2z m273 -266 c78 -42 115 -113 115 -220 0 -158 -101
-250 -260 -235 -138 12 -219 115 -208 261 8 91 48 160 112 193 63 33 181 33
241 1z"/>
</g>
</svg>
